<?xml version="1.0" encoding="utf-8"?>
<!-- Generator: Adobe Illustrator 24.2.1, SVG Export Plug-In . SVG Version: 6.00 Build 0)  -->
<svg version="1.1" id="Layer_1" xmlns="http://www.w3.org/2000/svg" xmlns:xlink="http://www.w3.org/1999/xlink" x="0px" y="0px"
	 viewBox="0 0 449 302" style="enable-background:new 0 0 449 302;" xml:space="preserve">
<style type="text/css">
	.st0{fill:#34395B;}
	.st1{fill:#525A8E;}
	.st2{fill:#7D87B5;}
	.st3{fill:#A4ABCB;}
</style>
<g id="Group_8" transform="translate(-1086.345 -321.689)">
	<g>
		
			<image style="overflow:visible;opacity:0.12;" width="236" height="249" xlink:href="FFE5492F72D1FEA8.png"  transform="matrix(1 0 0 1 1209.345 380.689)">
		</image>
		<g>
			<path class="st0" d="M1418.7,484.7c-3.7-2.1-8.3-1-10.9,2.2l-23.3,2.5c-1-8.9-3.8-17.3-7.9-24.8c0.9-0.1,1.8-0.4,2.6-1l20-14
				c0.7,0.2,1.5,0.3,2.3,0.3c4.9,0,8.9-4,8.9-8.9s-4-8.9-8.9-8.9c-4.6,0-8.3,3.4-8.8,7.9l-20.2,14.1c-0.7,0.5-1.3,1.1-1.7,1.8
				c-5.6-7.2-12.6-13.2-20.6-17.7l8.2-16.1c0.7-0.2,1.3-0.4,1.9-0.7c4.2-2.2,5.8-7.4,3.5-11.6c-2.2-4.2-7.4-5.8-11.6-3.5
				c-3.8,2-5.4,6.4-4.1,10.3l-8.6,16.8c-7-2.4-14.5-3.8-22.3-3.8c-0.5,0-1,0-1.5,0l-3.6-25.9c0-0.1,0-0.2-0.1-0.3
				c1.2-1.4,2-3.3,2-5.3c0.1-4.7-3.7-8.6-8.3-8.6c-4.7-0.1-8.6,3.7-8.6,8.3c0,2.9,1.4,5.5,3.6,7.1c0,0.2,0,0.3,0,0.5l3.6,25.6
				c-8.1,1.6-15.8,4.6-22.6,8.8l-13.2-17.6c0.1-0.7,0.2-1.3,0.2-2c-0.2-4.7-4.1-8.4-8.8-8.2c-4.7,0.2-8.4,4.1-8.2,8.8
				c0.1,4.3,3.4,7.7,7.5,8.2l13.4,17.7c-6.3,5.6-11.6,12.3-15.4,19.8c-0.4-0.4-0.8-0.7-1.3-1l-21.9-12.1c-1.1-3.4-4.3-5.9-8.1-5.9
				c-4.7,0-8.5,3.8-8.5,8.5c0,4.7,3.8,8.5,8.5,8.5c1.1,0,2.2-0.2,3.2-0.6l21.2,11.7c0.9,0.5,1.9,0.7,2.8,0.7
				c-2.1,6.5-3.2,13.4-3.2,20.6c0,1.2,0,2.4,0.1,3.5l-17.2,2.1c-0.5-0.4-1.1-0.9-1.7-1.2c-4.2-2.2-9.3-0.6-11.6,3.5
				c-2.2,4.2-0.6,9.3,3.5,11.6c3.8,2,8.3,0.9,10.8-2.4l17.7-2.2c1.7,7.6,4.8,14.8,8.9,21.2c-0.1,0-0.1,0.1-0.2,0.1l-21.9,15.4
				c-0.1,0.1-0.2,0.1-0.2,0.2c-0.3,0-0.7-0.1-1-0.1c-4.5,0-8.1,3.8-8.1,8.5c0,4.7,3.6,8.5,8.1,8.5c4.2,0,7.7-3.4,8.1-7.8l21.8-15.3
				c0.2-0.1,0.4-0.3,0.5-0.4c5,5.5,11,10.1,17.6,13.7l-10.8,19.5c-0.7,0.1-1.3,0.4-1.9,0.7c-4.2,2.1-6,7.2-3.9,11.4
				c2.1,4.2,7.2,6,11.4,3.9c3.8-1.9,5.6-6.2,4.4-10.2l11.5-20.7c6.8,2.3,14.1,3.6,21.7,3.6c0.2,0,0.4,0,0.6,0c0,0.4,0,0.7,0.1,1.1
				l4.2,26.5c0.1,0.4,0.2,0.8,0.3,1.1c-1.1,1.5-1.7,3.3-1.7,5.3c0,4.9,3.8,8.9,8.5,8.9c4.7,0,8.5-4,8.5-8.9c0-3.2-1.7-6.1-4.1-7.6
				c0-0.2,0-0.4-0.1-0.6l-4.2-26.5c0-0.1,0-0.2-0.1-0.3c7.2-1.3,14-3.7,20.2-7l13.1,17.4c-0.1,0.7-0.2,1.3-0.2,2
				c0.2,4.7,4.1,8.4,8.8,8.2c4.7-0.2,8.4-4.1,8.2-8.8c-0.1-4.3-3.4-7.7-7.5-8.2l-12.8-17c4.8-3.8,9.1-8.2,12.7-13.1
				c0.2,0.2,0.5,0.4,0.8,0.5l19.9,11c0.3,4.7,4.1,8.3,8.9,8.3c4.9,0,8.9-4,8.9-8.9s-4-8.9-8.9-8.9c-0.6,0-1.2,0.1-1.7,0.2
				l-21.5-11.9c-0.1-0.1-0.3-0.1-0.4-0.2c3.9-7.8,6.3-16.5,6.9-25.7l23.9-2.5c0.5,0.5,1.1,0.9,1.7,1.2c4.1,2.3,9.3,0.8,11.6-3.3
				S1422.8,487,1418.7,484.7z"/>
		</g>
	</g>
	<g>
		
			<image style="overflow:visible;opacity:0.12;" width="118" height="123" xlink:href="FFE5492F72D1FEA9.png"  transform="matrix(1 0 0 1 1439.345 345.689)">
		</image>
		<g>
			<path class="st1" d="M1533.5,395.5c-1.6-0.9-3.5-0.4-4.6,0.9l-9.8,1c-0.5-3.8-1.7-7.4-3.5-10.6c0.4,0,0.8-0.2,1.1-0.4l8.9-6.2
				c0.2,0,0.4,0.1,0.7,0.1c2.1,0,3.9-1.6,3.9-3.5c0-1.9-1.7-3.5-3.9-3.5c-2,0-3.6,1.4-3.8,3.1l-8.6,6c-0.3,0.2-0.6,0.5-0.7,0.8
				c-2.4-3-5.4-5.5-8.9-7.3l3.6-7.1c0.3-0.1,0.5-0.2,0.8-0.3c1.8-0.9,2.4-3.1,1.5-4.9s-3.1-2.4-4.9-1.5c-1.6,0.8-2.3,2.7-1.7,4.4
				l-3.8,7.5c-2.8-0.9-5.9-1.4-9-1.4c-0.9,0-1.7,0-2.6,0.1c0.2-0.4,0.3-0.9,0.2-1.4l-1.8-11.2c0-0.2-0.1-0.4-0.2-0.6
				c0.3-0.6,0.5-1.2,0.5-1.9c0-1.9-1.4-3.5-3.1-3.5s-3.1,1.6-3.1,3.5c0,1,0.4,1.9,1,2.5c0,0.2-0.1,0.5,0,0.8l1.8,11.2
				c0.1,0.5,0.3,0.9,0.6,1.3c-3,0.7-5.9,1.9-8.4,3.5l-6-7.9c0.1-0.3,0.1-0.6,0.1-0.9c-0.1-2-1.8-3.6-3.8-3.5c-2,0.1-3.6,1.8-3.5,3.8
				c0.1,1.8,1.4,3.2,3.2,3.5l6,8c-2.7,2.4-4.9,5.2-6.5,8.4c-0.2-0.4-0.5-0.7-0.9-0.9l-9.3-5.1c-0.5-1.5-1.7-2.6-3.3-2.6
				c-1.9,0-3.5,1.7-3.5,3.9s1.6,3.9,3.5,3.9c0.6,0,1.1-0.2,1.5-0.4l8.6,4.8c0.6,0.3,1.2,0.4,1.7,0.2c-0.9,2.8-1.5,5.8-1.5,8.9
				c0,0.5,0,0.9,0,1.3l-7.8,1c-0.2-0.2-0.4-0.4-0.7-0.5c-1.8-0.9-4-0.3-4.9,1.5c-0.9,1.8-0.3,4,1.5,4.9c1.6,0.8,3.5,0.4,4.6-1l8-1
				c0.7,3.1,1.9,6,3.6,8.7l-8.9,6.2c-0.4,0.2-0.6,0.6-0.8,0.9c-0.1,0-0.3,0-0.4,0c-1.9,0-3.5,1.6-3.5,3.5s1.6,3.5,3.5,3.5
				c1.9,0,3.5-1.6,3.5-3.5c0,0,0,0,0-0.1c0.2-0.1,0.4-0.2,0.5-0.3l9.1-6.4c2.1,2.3,4.6,4.3,7.4,5.9l-4.8,8.6
				c-0.3,0.1-0.6,0.1-0.8,0.3c-1.8,0.9-2.6,3.1-1.7,4.9c0.9,1.8,3.1,2.6,4.9,1.7c1.6-0.8,2.4-2.6,1.9-4.3l5-9.1
				c2.9,1,6.1,1.6,9.3,1.6l1.8,11.2c0,0.3,0.1,0.6,0.3,0.8c-0.3,0.5-0.5,1.1-0.5,1.8c0,1.9,1.6,3.5,3.5,3.5c1.9,0,3.5-1.6,3.5-3.5
				c0-1.3-0.8-2.5-1.9-3.1c0-0.1,0-0.2,0-0.3l-1.7-10.9c3-0.5,5.8-1.5,8.5-2.8l5.6,7.5c-0.1,0.3-0.1,0.6-0.1,0.9
				c0.1,2,1.8,3.6,3.8,3.5c2-0.1,3.6-1.8,3.5-3.8c-0.1-1.8-1.4-3.2-3.2-3.5l-5.5-7.3c2.1-1.6,3.9-3.4,5.5-5.5
				c0.1,0.1,0.2,0.1,0.3,0.2l8.4,4.7c0.2,2,1.8,3.5,3.8,3.5c2.1,0,3.9-1.7,3.9-3.9c0-2.1-1.7-3.9-3.9-3.9c-0.4,0-0.7,0.1-1,0.2
				l-8.8-4.9c0,0-0.1,0-0.1,0c1.7-3.3,2.7-7.1,3-11l10-1.1c0.2,0.2,0.4,0.4,0.7,0.5c1.8,1,4,0.3,4.9-1.4
				C1535.9,398.7,1535.2,396.5,1533.5,395.5z"/>
		</g>
	</g>
	<g>
		
			<image style="overflow:visible;opacity:0.12;" width="130" height="123" xlink:href="FFE5492F72D1FEAF.png"  transform="matrix(1 0 0 1 1078.345 431.689)">
		</image>
		<g>
			<path class="st1" d="M1181.9,473.5c-1.3,0-2.4,0.6-3.1,1.5c-0.1,0-0.1,0-0.2,0l-11.9,2.1c-0.4,0.1-0.8,0.2-1.1,0.5
				c-0.8-3.2-2.1-6.1-3.9-8.8l8-6.3c0.3,0.1,0.6,0.1,0.9,0.1c2.1-0.1,3.7-1.9,3.6-4c-0.1-2.1-1.9-3.7-4-3.6
				c-1.9,0.1-3.4,1.6-3.6,3.4l-8.1,6.4c-2.6-2.8-5.6-5.1-9.1-6.7c0.3-0.2,0.6-0.5,0.8-0.9l5-9.5c1.7-0.4,2.9-2,2.9-3.8
				c0-2.1-1.8-3.8-3.9-3.8c-2.1,0-3.8,1.8-3.8,3.9c0,0.4,0.1,0.9,0.3,1.3l-5,9.4c-0.3,0.5-0.4,1.1-0.2,1.7c-3-0.9-6.2-1.4-9.5-1.4
				c-0.5,0-0.9,0-1.4,0.1l-1.1-8.1c0.2-0.2,0.4-0.5,0.5-0.8c1-1.9,0.2-4.2-1.7-5.2c-1.9-1-4.2-0.2-5.2,1.7c-0.9,1.7-0.3,3.7,1.2,4.8
				l1.2,8.3c-3.9,0.9-7.4,2.6-10.6,4.9c0.3-0.8,0.2-1.7-0.3-2.4l-5.9-8.1c0.1-0.3,0.1-0.6,0.1-0.9c0-2.1-1.8-3.8-3.9-3.8
				s-3.8,1.8-3.8,3.9c0,1.9,1.5,3.5,3.4,3.7l6,8.2c0.6,0.8,1.5,1.1,2.4,1c-2.8,2.4-5.1,5.3-6.8,8.6l-8.9-4.7
				c-0.1-0.3-0.2-0.6-0.3-0.9c-1-1.9-3.3-2.6-5.2-1.7s-2.6,3.3-1.7,5.2c0.9,1.7,2.8,2.5,4.6,1.9l9.4,5c-1,3.1-1.6,6.4-1.5,9.9
				c0,0.2,0,0.4,0,0.6c-0.5-0.3-1.1-0.4-1.8-0.3l-11.9,2.1c-0.2,0-0.3,0.1-0.4,0.1c-0.6-0.4-1.3-0.6-2.1-0.6c-2.1,0-3.8,1.8-3.8,3.9
				s1.8,3.8,3.9,3.8c1.5,0,2.8-0.9,3.4-2.1l11.8-2.1c0.5-0.1,0.9-0.3,1.3-0.6c0.6,3.5,1.8,6.7,3.5,9.7l-7.6,6
				c-0.3-0.1-0.6-0.1-0.9-0.1c-2.1,0.1-3.7,1.9-3.6,4c0.1,2.1,1.9,3.7,4,3.6c1.9-0.1,3.4-1.6,3.6-3.4l7.5-5.9c1.8,2.1,3.8,4,6.1,5.6
				c-0.1,0.1-0.2,0.2-0.2,0.4l-5,9.4c-1.8,0.3-3.2,1.9-3.2,3.9c0,2.1,1.8,3.8,3.9,3.8c2.1,0,3.8-1.8,3.8-3.9c0-0.3-0.1-0.6-0.1-0.9
				l5.2-9.7c0-0.1,0.1-0.2,0.1-0.2c3.5,1.7,7.5,2.6,11.6,2.8l1.3,10.9c-0.2,0.2-0.4,0.5-0.5,0.7c-1,1.9-0.3,4.2,1.6,5.2
				c1.9,1,4.2,0.3,5.2-1.6c0.9-1.7,0.4-3.7-1.1-4.9l-1.3-10.6c4-0.5,7.8-1.9,11.1-3.8c0,0.5,0.2,0.9,0.5,1.4l6.7,9.3
				c-0.1,0.3-0.1,0.5-0.1,0.8c0,2.1,1.8,3.8,3.9,3.8c2.1,0,3.8-1.8,3.8-3.9c0-2-1.5-3.6-3.5-3.8l-6.7-9.2c-0.3-0.4-0.6-0.6-1-0.8
				c3.2-2.6,5.9-5.8,7.8-9.4l7.5,3.6c0.1,0.3,0.2,0.6,0.3,0.9c1,1.9,3.4,2.5,5.2,1.5c1.9-1,2.5-3.4,1.5-5.2
				c-0.9-1.7-2.9-2.4-4.7-1.7l-7.8-3.8c1-3.1,1.5-6.4,1.5-9.8c0-0.8-0.1-1.6-0.2-2.5c0.4,0.1,0.8,0.1,1.2,0.1l11.9-2.1
				c0.2,0,0.3-0.1,0.5-0.1c0.6,0.3,1.3,0.5,2,0.5c2.1,0,3.8-1.6,3.8-3.5C1185.8,475,1184,473.4,1181.9,473.5z"/>
		</g>
	</g>
	<g>
		
			<image style="overflow:visible;opacity:0.12;" width="87" height="84" xlink:href="FFE5492F72D1FEAA.png"  transform="matrix(1 0 0 1 1345.345 313.689)">
		</image>
		<g>
			<path class="st2" d="M1407.4,341.3c-0.7,0-1.4,0.4-1.8,0.9c0,0-0.1,0-0.1,0l-6.9,1.2c-0.2,0-0.5,0.1-0.6,0.3
				c-0.5-1.8-1.2-3.6-2.2-5.1l4.7-3.7c0.2,0,0.4,0.1,0.5,0c1.2-0.1,2.2-1.1,2.1-2.3c-0.1-1.2-1.1-2.2-2.3-2.1c-1.1,0.1-2,0.9-2.1,2
				l-4.7,3.7c-1.5-1.6-3.3-2.9-5.3-3.9c0.2-0.1,0.3-0.3,0.5-0.5l2.9-5.5c1-0.3,1.7-1.1,1.7-2.2c0-1.2-1-2.2-2.3-2.2
				c-1.2,0-2.2,1-2.2,2.3c0,0.3,0.1,0.5,0.1,0.7l-2.9,5.5c-0.2,0.3-0.2,0.7-0.1,1c-1.7-0.5-3.6-0.8-5.5-0.8c-0.3,0-0.5,0-0.8,0.1
				l-0.7-4.7c0.1-0.1,0.2-0.3,0.3-0.4c0.6-1.1,0.1-2.4-1-3c-1.1-0.6-2.4-0.1-3,1c-0.5,1-0.2,2.2,0.7,2.8l0.7,4.8
				c-2,0.5-3.8,1.3-5.4,2.3l-4-5.6c-0.1-0.1-0.2-0.2-0.3-0.3c0-0.1,0-0.2,0-0.3c0-1.2-1-2.2-2.3-2.2c-1.2,0-2.2,1-2.2,2.3
				c0,1.2,1,2.2,2.3,2.2c0,0,0,0.1,0.1,0.1l4.1,5.6c-1.4,1.3-2.6,2.9-3.5,4.6l-5.2-2.7c0-0.2-0.1-0.3-0.2-0.5c-0.6-1.1-1.9-1.5-3-1
				s-1.5,1.9-1,3c0.5,1,1.6,1.4,2.7,1.1l5.5,2.9c-0.6,1.8-0.9,3.7-0.9,5.7c0,0.1,0,0.2,0,0.3l-5.9,1c-0.1,0-0.2,0-0.3,0.1
				c-0.4-0.2-0.8-0.4-1.3-0.3c-1.2,0.1-2.2,1.1-2.1,2.3c0.1,1.2,1.1,2.2,2.3,2.1c0.8,0,1.5-0.5,1.9-1.2l5.7-1c0.4,1.8,1,3.5,1.9,5
				l-4.4,3.5c-0.2,0-0.4-0.1-0.5,0c-1.2,0.1-2.2,1.1-2.1,2.3s1.1,2.2,2.3,2.1c1.1-0.1,2-0.9,2.1-2l4.4-3.4c1,1.2,2.2,2.3,3.5,3.2
				c-0.1,0.1-0.1,0.1-0.1,0.2l-2.9,5.4c-1.1,0.2-1.9,1.1-1.8,2.2c0,1.2,1,2.2,2.3,2.2s2.2-1,2.2-2.3c0-0.2,0-0.4-0.1-0.5l3-5.6
				c0,0,0-0.1,0.1-0.2c2.1,1,4.3,1.5,6.7,1.6l0.8,6.3c-0.1,0.1-0.2,0.3-0.3,0.4c-0.6,1.1-0.2,2.4,0.9,3c1.1,0.6,2.4,0.2,3-0.9
				c0.5-1,0.2-2.2-0.6-2.8l-0.8-6.2c2.3-0.3,4.5-1.1,6.4-2.2c0,0.3,0.1,0.6,0.3,0.8l3.9,5.4c0,0.2,0,0.3,0,0.5c0,1.2,1,2.2,2.3,2.2
				c1.2,0,2.2-1,2.2-2.3c0-1.1-0.9-2.1-2-2.2l-3.9-5.4c-0.2-0.2-0.4-0.4-0.6-0.5c1.9-1.5,3.4-3.3,4.5-5.5l4.3,2.1
				c0,0.2,0.1,0.3,0.2,0.5c0.6,1.1,2,1.5,3,0.9s1.5-2,0.9-3c-0.5-1-1.7-1.4-2.7-1l-4.6-2.2c0.6-1.8,0.9-3.7,0.9-5.7
				c0-0.5-0.1-1-0.1-1.4c0.2,0.1,0.4,0.1,0.7,0l6.9-1.2c0.1,0,0.2,0,0.3-0.1c0.3,0.2,0.7,0.3,1.2,0.3c1.2,0,2.2-0.9,2.2-2.1
				C1409.7,342.1,1408.6,341.2,1407.4,341.3z"/>
		</g>
	</g>
	<g>
		
			<image style="overflow:visible;opacity:0.12;" width="89" height="85" xlink:href="FFE5492F72D1FEAB.png"  transform="matrix(1 0 0 1 1401.345 560.689)">
		</image>
		<g>
			<path class="st2" d="M1465.3,589.1c-0.7,0-1.4,0.4-1.8,0.9c0,0-0.1,0-0.1,0l-6.9,1.2c-0.2,0-0.5,0.1-0.6,0.3
				c-0.5-1.8-1.2-3.6-2.2-5.1l4.7-3.7c0.2,0,0.4,0.1,0.5,0c1.2-0.1,2.2-1.1,2.1-2.3c-0.1-1.2-1.1-2.2-2.3-2.1c-1.1,0.1-2,0.9-2.1,2
				l-4.7,3.7c-1.5-1.6-3.3-2.9-5.3-3.9c0.2-0.1,0.3-0.3,0.5-0.5l2.9-5.5c1-0.3,1.7-1.1,1.7-2.2c0-1.2-1-2.2-2.3-2.2
				c-1.2,0-2.2,1-2.2,2.3c0,0.3,0.1,0.5,0.1,0.7l-2.9,5.5c-0.2,0.3-0.2,0.7-0.1,1c-1.7-0.5-3.6-0.8-5.5-0.8c-0.3,0-0.5,0-0.8,0.1
				l-0.7-4.7c0.1-0.1,0.2-0.3,0.3-0.4c0.6-1.1,0.1-2.4-1-3c-1.1-0.6-2.4-0.1-3,1c-0.5,1-0.2,2.2,0.7,2.8l0.7,4.8
				c-2.2,0.5-4.3,1.5-6.1,2.8c0.2-0.5,0.1-1-0.2-1.4l-3.4-4.7c0-0.2,0.1-0.3,0.1-0.5c0-1.2-1-2.2-2.3-2.2c-1.2,0-2.2,1-2.2,2.3
				c0,1.1,0.9,2,1.9,2.2l3.5,4.8c0.3,0.5,0.9,0.7,1.4,0.6c-1.6,1.4-3,3.1-4,5l-5.2-2.7c0-0.2-0.1-0.3-0.2-0.5c-0.6-1.1-1.9-1.5-3-1
				s-1.5,1.9-1,3c0.5,1,1.6,1.4,2.7,1.1l5.5,2.9c-0.6,1.8-0.9,3.7-0.9,5.7c0,0.1,0,0.2,0,0.3c-0.3-0.2-0.7-0.3-1-0.2l-6.9,1.2
				c-0.1,0-0.2,0-0.3,0.1c-0.4-0.2-0.8-0.4-1.2-0.3c-1.2,0-2.2,1-2.2,2.3c0,1.2,1,2.2,2.3,2.2c0.9,0,1.6-0.5,2-1.2l6.9-1.2
				c0.3-0.1,0.6-0.2,0.8-0.4c0.4,2,1,3.9,2,5.6l-4.4,3.5c-0.2,0-0.4-0.1-0.5,0c-1.2,0.1-2.2,1.1-2.1,2.3c0.1,1.2,1.1,2.2,2.3,2.1
				c1.1-0.1,2-0.9,2.1-2l4.4-3.4c1,1.2,2.2,2.3,3.5,3.2c-0.1,0.1-0.1,0.1-0.1,0.2l-2.9,5.4c-1.1,0.2-1.9,1.1-1.8,2.2
				c0,1.2,1,2.2,2.3,2.2c1.2,0,2.2-1,2.2-2.3c0-0.2,0-0.4-0.1-0.5l3-5.6c0,0,0-0.1,0.1-0.2c2.1,1,4.3,1.5,6.7,1.6l0.8,6.3
				c-0.1,0.1-0.2,0.3-0.3,0.4c-0.6,1.1-0.2,2.4,0.9,3c1.1,0.6,2.4,0.2,3-0.9c0.5-1,0.2-2.2-0.6-2.8l-0.8-6.2
				c2.3-0.3,4.5-1.1,6.4-2.2c0,0.3,0.1,0.6,0.3,0.8l3.9,5.4c0,0.2,0,0.3,0,0.5c0,1.2,1,2.2,2.3,2.2c1.2,0,2.2-1,2.2-2.3
				c0-1.1-0.9-2.1-2-2.2l-3.9-5.4c-0.2-0.2-0.4-0.4-0.6-0.5c1.9-1.5,3.4-3.3,4.5-5.5l4.3,2.1c0,0.2,0.1,0.3,0.2,0.5
				c0.6,1.1,2,1.5,3,0.9c1.1-0.6,1.5-2,0.9-3c-0.5-1-1.7-1.4-2.7-1l-4.6-2.2c0.6-1.8,0.9-3.7,0.9-5.7c0-0.5-0.1-1-0.1-1.4
				c0.2,0.1,0.4,0.1,0.7,0l6.9-1.2c0.1,0,0.2,0,0.3-0.1c0.3,0.2,0.7,0.3,1.2,0.3c1.2,0,2.2-0.9,2.2-2.1
				C1467.6,590,1466.6,589.1,1465.3,589.1z"/>
		</g>
	</g>
	<g>
		
			<image style="overflow:visible;opacity:0.12;" width="70" height="68" xlink:href="FFE5492F72D1FEA6.png"  transform="matrix(1 0 0 1 1451.345 506.689)">
		</image>
		<g>
			<path class="st3" d="M1497.5,528.7c-0.5,0-0.9,0.2-1.2,0.6c0,0,0,0-0.1,0l-4.7,0.8c-0.2,0-0.3,0.1-0.4,0.2
				c-0.3-1.2-0.8-2.4-1.5-3.5l3.2-2.5c0.1,0,0.2,0,0.4,0c0.8,0,1.5-0.8,1.4-1.6c0-0.8-0.8-1.5-1.6-1.4c-0.7,0-1.3,0.6-1.4,1.3
				l-3.2,2.5c-1-1.1-2.2-2-3.6-2.6c0.1-0.1,0.2-0.2,0.3-0.3l2-3.7c0.7-0.2,1.1-0.8,1.1-1.5c0-0.8-0.7-1.5-1.5-1.5
				c-0.8,0-1.5,0.7-1.5,1.5c0,0.2,0,0.3,0.1,0.5l-2,3.7c-0.1,0.2-0.1,0.5-0.1,0.7c-1.2-0.4-2.4-0.6-3.7-0.5c-0.2,0-0.4,0-0.5,0
				l-0.4-3.2c0.1-0.1,0.1-0.2,0.2-0.3c0.4-0.7,0.1-1.6-0.7-2s-1.6-0.1-2,0.7c-0.3,0.7-0.1,1.5,0.5,1.9l0.5,3.2
				c-1.5,0.4-2.9,1-4.2,1.9c0.1-0.3,0.1-0.7-0.1-1l-2.3-3.2c0-0.1,0-0.2,0-0.4c0-0.8-0.7-1.5-1.5-1.5s-1.5,0.7-1.5,1.5
				c0,0.8,0.6,1.4,1.3,1.5l2.3,3.2c0.2,0.3,0.6,0.4,1,0.4c-1.1,0.9-2,2.1-2.7,3.4l-3.5-1.8c0-0.1-0.1-0.2-0.1-0.3
				c-0.4-0.7-1.3-1-2-0.7s-1,1.3-0.7,2c0.3,0.7,1.1,1,1.8,0.7l3.7,2c-0.4,1.2-0.6,2.5-0.6,3.9c0,0.1,0,0.2,0,0.2
				c-0.2-0.1-0.4-0.2-0.7-0.1l-4.7,0.8c-0.1,0-0.1,0-0.2,0.1c-0.2-0.2-0.5-0.3-0.9-0.2c-0.8,0-1.5,0.7-1.5,1.5
				c0,0.8,0.7,1.5,1.5,1.5c0.6,0,1.1-0.4,1.3-0.8l4.6-0.8c0.2,0,0.4-0.1,0.5-0.3c0.2,1.4,0.7,2.7,1.4,3.8l-3,2.3c-0.1,0-0.2,0-0.4,0
				c-0.8,0-1.5,0.8-1.4,1.6c0,0.8,0.8,1.5,1.6,1.4c0.7,0,1.3-0.6,1.4-1.3l3-2.3c0.7,0.8,1.5,1.6,2.4,2.2c0,0-0.1,0.1-0.1,0.1
				l-1.9,3.7c-0.7,0.1-1.3,0.8-1.2,1.5c0,0.8,0.7,1.5,1.5,1.5c0.8,0,1.5-0.7,1.5-1.5c0-0.1,0-0.2-0.1-0.4l2-3.8c0,0,0-0.1,0-0.1
				c1.4,0.7,2.9,1,4.5,1.1l0.5,4.3c-0.1,0.1-0.2,0.2-0.2,0.3c-0.4,0.7-0.1,1.6,0.6,2s1.6,0.1,2-0.6c0.4-0.7,0.2-1.5-0.4-1.9
				l-0.5-4.2c1.6-0.2,3.1-0.7,4.4-1.5c0,0.2,0.1,0.4,0.2,0.5l2.6,3.6c0,0.1,0,0.2,0,0.3c0,0.8,0.7,1.5,1.5,1.5
				c0.8,0,1.5-0.7,1.5-1.5c0-0.8-0.6-1.4-1.4-1.5l-2.6-3.6c-0.1-0.2-0.3-0.2-0.4-0.3c1.3-1,2.3-2.3,3.1-3.7l2.9,1.4
				c0,0.1,0.1,0.2,0.1,0.3c0.4,0.7,1.3,1,2,0.6c0.7-0.4,1-1.3,0.6-2c-0.4-0.7-1.1-0.9-1.8-0.7l-3.1-1.5c0.4-1.2,0.6-2.5,0.6-3.8
				c0-0.3,0-0.7-0.1-1c0.1,0,0.3,0.1,0.5,0l4.7-0.8c0.1,0,0.1,0,0.2-0.1c0.2,0.1,0.5,0.2,0.8,0.2c0.8,0,1.5-0.6,1.5-1.4
				C1499.1,529.2,1498.4,528.6,1497.5,528.7z"/>
		</g>
	</g>
	<g>
		
			<image style="overflow:visible;opacity:0.12;" width="61" height="59" xlink:href="FFE5492F72D1FEA7.png"  transform="matrix(1 0 0 1 1231.345 331.689)">
		</image>
		<g>
			<path class="st3" d="M1269,350.2c-0.4,0-0.7,0.2-0.9,0.5c0,0-0.1,0-0.1,0l-3.6,0.6c-0.1,0-0.2,0.1-0.3,0.2
				c-0.2-1-0.6-1.9-1.2-2.7l2.5-1.9c0.1,0,0.2,0,0.3,0c0.6,0,1.1-0.6,1.1-1.2c0-0.6-0.6-1.1-1.2-1.1c-0.6,0-1,0.5-1.1,1l-2.5,2
				c-0.8-0.8-1.7-1.5-2.8-2c0.1-0.1,0.2-0.2,0.2-0.3l1.5-2.9c0.5-0.1,0.9-0.6,0.9-1.1c0-0.6-0.5-1.2-1.2-1.2c-0.6,0-1.2,0.5-1.2,1.2
				c0,0.1,0,0.3,0.1,0.4l-1.5,2.9c-0.1,0.2-0.1,0.4-0.1,0.5c-0.9-0.3-1.9-0.4-2.9-0.4c-0.1,0-0.3,0-0.4,0l-0.4-2.5
				c0.1-0.1,0.1-0.1,0.2-0.2c0.3-0.6,0.1-1.3-0.5-1.6s-1.3-0.1-1.6,0.5c-0.3,0.5-0.1,1.1,0.4,1.4l0.4,2.5c-1.2,0.3-2.3,0.8-3.2,1.5
				c0.1-0.2,0.1-0.5-0.1-0.8l-1.8-2.5c0-0.1,0-0.2,0-0.3c0-0.6-0.5-1.2-1.2-1.2c-0.6,0-1.2,0.5-1.2,1.2c0,0.6,0.4,1,1,1.1l1.8,2.5
				c0.2,0.2,0.5,0.3,0.7,0.3c-0.8,0.7-1.6,1.6-2.1,2.6l-2.7-1.4c0-0.1,0-0.2-0.1-0.3c-0.3-0.6-1-0.8-1.6-0.5s-0.8,1-0.5,1.6
				c0.3,0.5,0.8,0.7,1.4,0.6l2.9,1.5c-0.3,0.9-0.5,2-0.5,3c0,0.1,0,0.1,0,0.2c-0.2-0.1-0.3-0.1-0.5-0.1l-3.6,0.6
				c-0.1,0-0.1,0-0.1,0.1c-0.2-0.1-0.4-0.2-0.6-0.2c-0.6,0-1.2,0.5-1.2,1.2c0,0.6,0.5,1.2,1.2,1.2c0.4,0,0.8-0.3,1-0.7l3.6-0.6
				c0.2,0,0.3-0.1,0.4-0.2c0.2,1.1,0.5,2.1,1,3l-2.3,1.8c-0.1,0-0.2,0-0.3,0c-0.6,0-1.1,0.6-1.1,1.2c0,0.6,0.6,1.1,1.2,1.1
				c0.6,0,1-0.5,1.1-1l2.3-1.8c0.5,0.6,1.2,1.2,1.9,1.7c0,0-0.1,0.1-0.1,0.1l-1.5,2.9c-0.5,0.1-1,0.6-1,1.1c0,0.6,0.5,1.2,1.2,1.2
				c0.6,0,1.2-0.5,1.2-1.2c0-0.1,0-0.2-0.1-0.3l1.6-3c0,0,0-0.1,0-0.1c1.1,0.5,2.3,0.8,3.5,0.9l0.4,3.3c-0.1,0.1-0.1,0.1-0.2,0.2
				c-0.3,0.6-0.1,1.3,0.5,1.6c0.6,0.3,1.3,0.1,1.6-0.5c0.3-0.5,0.1-1.1-0.3-1.4l-0.4-3.3c1.2-0.2,2.4-0.6,3.4-1.2
				c0,0.1,0,0.3,0.1,0.4l2.1,2.8c0,0.1,0,0.1,0,0.2c0,0.6,0.5,1.2,1.2,1.2c0.6,0,1.2-0.5,1.2-1.2c0-0.6-0.5-1.1-1-1.1l-2.1-2.8
				c-0.1-0.1-0.2-0.2-0.3-0.2c1-0.8,1.8-1.8,2.4-2.9l2.3,1.1c0,0.1,0,0.2,0.1,0.3c0.3,0.6,1,0.8,1.6,0.5c0.6-0.3,0.8-1,0.5-1.6
				c-0.3-0.5-0.9-0.7-1.4-0.5l-2.4-1.2c0.3-0.9,0.5-1.9,0.5-3c0-0.3,0-0.5-0.1-0.8c0.1,0,0.2,0.1,0.4,0l3.6-0.6c0.1,0,0.1,0,0.2-0.1
				c0.2,0.1,0.4,0.2,0.6,0.2c0.6,0,1.2-0.5,1.2-1.1C1270.2,350.7,1269.7,350.2,1269,350.2z"/>
		</g>
	</g>
</g>
</svg>
